<?xml version="1.0" encoding="UTF-8" standalone="no"?>
<svg
   xmlns:dc="http://purl.org/dc/elements/1.1/"
   xmlns:cc="http://creativecommons.org/ns#"
   xmlns:rdf="http://www.w3.org/1999/02/22-rdf-syntax-ns#"
   xmlns:svg="http://www.w3.org/2000/svg"
   xmlns="http://www.w3.org/2000/svg"
   xmlns:sodipodi="http://sodipodi.sourceforge.net/DTD/sodipodi-0.dtd"
   xmlns:inkscape="http://www.inkscape.org/namespaces/inkscape"
   version="1.1"
   width="210.00mm"
   height="297.00mm"
   viewBox="0 0 210.00 297.00"
   id="svg36"
   sodipodi:docname="duck_female_body3_page2.svg"
   inkscape:version="0.92.2 5c3e80d, 2017-08-06">
  <metadata
     id="metadata42">
    <rdf:RDF>
      <cc:Work
         rdf:about="">
        <dc:format>image/svg+xml</dc:format>
        <dc:type
           rdf:resource="http://purl.org/dc/dcmitype/StillImage" />
        <dc:title></dc:title>
      </cc:Work>
    </rdf:RDF>
  </metadata>
  <defs
     id="defs40" />
  <sodipodi:namedview
     pagecolor="#ffffff"
     bordercolor="#666666"
     borderopacity="1"
     objecttolerance="10"
     gridtolerance="10"
     guidetolerance="10"
     inkscape:pageopacity="0"
     inkscape:pageshadow="2"
     inkscape:window-width="1440"
     inkscape:window-height="805"
     id="namedview38"
     showgrid="false"
     inkscape:zoom="0.84096521"
     inkscape:cx="375.44642"
     inkscape:cy="585.04204"
     inkscape:window-x="0"
     inkscape:window-y="1"
     inkscape:window-maximized="1"
     inkscape:current-layer="svg36" />
  <style
     type="text/css"
     id="style2">
    path {
        fill: none;
        stroke-linecap: butt;
        stroke-linejoin: bevel;
        stroke-dasharray: none;
    }
    path.outer {
        stroke: #ff0000;
        stroke-dasharray: none;
        stroke-dashoffset: 0;
        stroke-width: 0.3;
        stroke-opacity: 1.0;
    }
    path.convex {
        stroke: #000000;
        stroke-dasharray: none;
        stroke-dashoffset:0;
        stroke-width:0.2;
        stroke-opacity: 1.0
    }
    path.concave {
        stroke: #000000;
        stroke-dasharray: none;
        stroke-dashoffset: 0;
        stroke-width: 0.2;
        stroke-opacity: 1.0
    }
    path.freestyle {
        stroke: #000000;
        stroke-dasharray: none;
        stroke-dashoffset: 0;
        stroke-width: 0.2;
        stroke-opacity: 1.0
    }
    path.outer_background {
        stroke: #ffffff;
        stroke-opacity: 1.0;
        stroke-width: 0.5
    }
    path.inner_background {
        stroke: #ffffff;
        stroke-opacity: 1.0;
        stroke-width: 0.2
    }
    path.sticker {
        fill: #e5e5e5;
        stroke: none;
        fill-opacity: 1.0;
    }
    path.arrow {
        fill: #000;
    }
    text {
        font-style: normal;
        fill: #000000;
        fill-opacity: 1.0;
        stroke: none;
    }
    text, tspan {
        text-anchor:middle;
    }
    </style>
  <g
     id="g34"
     style="fill:none;stroke-width:0.03527778;stroke-miterlimit:4;stroke-dasharray:none">
    <g
       id="g12"
       style="fill:none;stroke-width:0.03527778;stroke-miterlimit:4;stroke-dasharray:none">
      <path
         class="sticker"
         d=" M 88.083764 208.441901 L 76.149744 200.960930 L 75.417367 199.993434 L 77.661638 194.673981 Z M 96.393597 178.340974 L 109.156025 184.019330 L 119.130422 193.979683 L 117.640068 199.557508 Z M 156.264265 237.388204 L 162.804757 239.806096 L 172.897060 262.579675 L 169.495408 267.244677 Z M 117.640068 199.557508 L 123.040502 197.515796 L 156.390493 224.802884 L 155.618806 230.631861 Z M 77.661638 194.673981 L 71.950284 193.829115 L 64.282735 174.448702 L 67.435627 168.826859 Z M 63.652945 150.907750 L 61.713179 147.647033 L 63.027483 145.300384 L 66.864145 145.174245 Z M 8.336698 231.606069 L 10.801633 223.890702 L 18.294443 218.805957 L 23.490747 221.322249 Z M 119.304915 237.510080 L 146.170308 232.421461 L 152.054613 232.402059 L 156.264265 237.388204 Z M 52.382891 230.995248 L 56.499598 226.947273 L 72.360461 231.340590 L 81.324992 239.011939 Z M 106.930603 270.154442 L 109.512237 275.318603 L 99.503730 290.474917 L 93.740632 290.128599 Z M 35.492872 262.126128 L 33.615698 268.884222 L 22.748743 274.909834 L 17.799486 271.936934 Z M 58.507358 219.485867 L 56.268823 214.103098 L 67.716283 198.619249 L 73.452947 199.270430 Z M 79.047327 269.146333 L 75.401713 273.623268 L 38.313289 267.645265 L 35.492872 262.126128 Z M 10.068943 239.279564 L 5.732154 237.930532 L 5.000000 234.687339 L 8.336698 231.606069 Z "
         id="path4"
         style="fill:none;stroke-width:0.03527778;stroke-miterlimit:4;stroke-dasharray:none" />
      <path
         class="convex"
         d=" M 117.640068 199.557508 L 96.393597 178.340974 M 67.435627 168.826859 L 96.393597 178.340974 M 141.073530 139.524187 L 168.661271 141.798998 M 168.661271 141.798998 L 143.320535 119.331474 M 73.452947 199.270430 L 58.507358 219.485867 M 84.626173 150.281663 L 96.393597 178.340974 M 77.661638 194.673981 L 88.083764 208.441901 M 119.304915 237.510080 L 117.640068 199.557508 M 79.047327 269.146333 L 106.930603 270.154442 M 155.618806 230.631861 L 117.640068 199.557508 M 88.083764 208.441901 L 119.304915 237.510080 M 169.495408 267.244677 L 156.264265 237.388204 M 81.324992 239.011939 L 88.083764 208.441901 M 26.754488 246.212686 L 35.492872 262.126128 M 10.068943 239.279564 L 23.490747 221.322249 M 23.490747 221.322249 L 8.336698 231.606069 M 81.324992 239.011939 L 106.930603 270.154442 M 96.393597 178.340974 L 141.073530 139.524187 M 106.930603 270.154442 L 119.304915 237.510080 M 81.324992 239.011939 L 119.304915 237.510080 M 123.826628 190.546746 L 141.073530 139.524187 M 67.435627 168.826859 L 77.661638 194.673981 M 77.661638 194.673981 L 96.393597 178.340974 M 93.740632 290.128599 L 106.930603 270.154442 M 10.068943 239.279564 L 52.382891 230.995248 M 63.652945 150.907750 L 96.393597 178.340974 M 156.264265 237.388204 L 119.304915 237.510080 M 66.864145 145.174245 L 84.626173 150.281663 M 79.047327 269.146333 L 52.382891 230.995248 M 79.047327 269.146333 L 81.324992 239.011939 M 23.490747 221.322249 L 52.382891 230.995248 M 136.777450 291.999991 L 156.264265 237.388204 M 81.324992 239.011939 L 52.382891 230.995248 M 10.068943 239.279564 L 26.754488 246.212686 M 26.754488 246.212686 L 52.382891 230.995248 M 88.083764 208.441901 L 117.640068 199.557508 "
         id="path6"
         style="fill:none;stroke-width:0.03527778;stroke-miterlimit:4;stroke-dasharray:none" />
      <path
         class="concave"
         d=" M 58.507358 219.485867 L 88.083764 208.441901 M 88.083764 208.441901 L 96.393597 178.340974 M 17.799486 271.936934 L 35.492872 262.126128 M 8.336698 231.606069 L 10.068943 239.279564 M 66.864145 145.174245 L 63.652945 150.907750 M 99.906360 124.407436 L 96.393597 178.340974 M 63.652945 150.907750 L 84.626173 150.281663 M 172.897046 190.238769 L 141.073530 139.524187 M 106.930603 270.154442 L 156.264265 237.388204 M 35.492872 262.126128 L 79.047327 269.146333 M 52.382891 230.995248 L 35.492872 262.126128 "
         id="path8"
         style="fill:none;stroke-width:0.03527778;stroke-miterlimit:4;stroke-dasharray:none" />
      <path
         class="outer"
         d=" M 109.156025 184.019330 L 119.130422 193.979683 L 117.640068 199.557508 L 123.040502 197.515796 L 156.390493 224.802884 L 155.618806 230.631861 L 119.304915 237.510080 L 146.170308 232.421461 L 152.054613 232.402059 L 156.264265 237.388204 L 162.804757 239.806096 L 172.897060 262.579675 L 169.495408 267.244677 L 136.777450 291.999991 L 106.930603 270.154442 L 109.512237 275.318603 L 99.503730 290.474917 L 93.740632 290.128599 L 79.047327 269.146333 L 75.401713 273.623268 L 38.313289 267.645265 L 35.492872 262.126128 L 33.615698 268.884222 L 22.748743 274.909834 L 17.799486 271.936934 L 26.754488 246.212686 L 11.354496 259.371023 L 10.068943 239.279564 L 5.732154 237.930532 L 5.000000 234.687339 L 8.336698 231.606069 L 10.801633 223.890702 L 18.294443 218.805957 L 23.490747 221.322249 L 46.970447 206.444505 L 52.382891 230.995248 L 56.499598 226.947273 L 72.360461 231.340590 L 81.324992 239.011939 L 58.507358 219.485867 L 56.268823 214.103098 L 67.716283 198.619249 L 73.452947 199.270430 L 88.083764 208.441901 L 76.149744 200.960930 L 75.417367 199.993434 L 77.661638 194.673981 L 71.950284 193.829115 L 64.282735 174.448702 L 67.435627 168.826859 L 63.652945 150.907750 L 61.713179 147.647033 L 63.027483 145.300384 L 66.864145 145.174245 L 81.043345 129.539321 L 84.626173 150.281663 L 99.906360 124.407436 L 141.073530 139.524187 L 143.320535 119.331474 L 169.966270 111.358057 L 168.661271 141.798998 L 172.897046 190.238769 L 123.826628 190.546746 L 96.393597 178.340974 Z "
         id="path10"
         style="fill:none;stroke-width:0.03527778;stroke-miterlimit:4;stroke-dasharray:none" />
    </g>
    <g
       id="g22"
       style="fill:none;stroke-width:0.03527778;stroke-miterlimit:4;stroke-dasharray:none">
      <path
         class="sticker"
         d=" M 60.382196 65.511565 L 68.112818 65.411712 L 71.278167 68.026121 L 70.319799 73.719527 Z M 9.783186 72.978924 L 5.000000 69.745596 L 5.633392 60.817326 L 10.825137 58.291639 Z M 19.426466 69.163512 L 16.462180 75.713481 L 14.306995 76.566185 L 9.783186 72.978924 Z M 10.825137 58.291639 L 7.303414 53.716610 L 11.004032 44.743533 L 16.726976 43.981145 Z M 23.384002 47.990317 L 17.617398 44.517393 L 19.777496 41.106815 Z M 65.310300 104.458655 L 62.688068 109.602313 L 29.046659 111.358057 L 11.649039 107.259239 Z "
         id="path14"
         style="fill:none;stroke-width:0.03527778;stroke-miterlimit:4;stroke-dasharray:none" />
      <path
         class="convex"
         d=" M 19.426466 69.163512 L 23.384002 47.990317 M 16.726976 43.981145 L 10.825137 58.291639 M 19.426466 69.163512 L 10.825137 58.291639 M 11.649039 107.259239 L 62.518493 97.104142 M 10.825137 58.291639 L 9.783186 72.978924 M 9.783186 72.978924 L 19.426466 69.163512 M 23.384002 47.990317 L 60.382196 65.511565 M 69.158194 55.494855 L 19.777496 41.106815 M 11.649039 107.259239 L 65.310300 104.458655 M 19.777496 41.106815 L 23.384002 47.990317 M 23.384002 47.990317 L 69.158194 55.494855 M 9.028839 92.002894 L 62.518493 97.104142 M 19.426466 69.163512 L 60.382196 65.511565 M 62.518493 97.104142 L 15.150568 78.611608 M 66.873592 83.369131 L 15.150568 78.611608 M 23.384002 47.990317 L 10.825137 58.291639 M 15.150568 78.611608 L 67.254418 92.548246 M 19.426466 69.163512 L 70.319799 73.719527 "
         id="path16"
         style="fill:none;stroke-width:0.03527778;stroke-miterlimit:4;stroke-dasharray:none" />
      <path
         class="concave"
         d=" M 70.319799 73.719527 L 60.382196 65.511565 M 19.426466 69.163512 L 66.873592 83.369131 "
         id="path18"
         style="fill:none;stroke-width:0.03527778;stroke-miterlimit:4;stroke-dasharray:none" />
      <path
         class="outer"
         d=" M 62.688068 109.602313 L 29.046659 111.358057 L 11.649039 107.259239 L 9.028839 92.002894 L 15.150568 78.611608 L 19.426466 69.163512 L 16.462180 75.713481 L 14.306995 76.566185 L 9.783186 72.978924 L 5.000000 69.745596 L 5.633392 60.817326 L 10.825137 58.291639 L 7.303414 53.716610 L 11.004032 44.743533 L 16.726976 43.981145 L 23.384002 47.990317 L 17.617398 44.517393 L 19.777496 41.106815 L 73.511799 41.106815 L 69.158194 55.494855 L 60.382196 65.511565 L 68.112818 65.411712 L 71.278167 68.026121 L 70.319799 73.719527 L 66.873592 83.369131 L 67.254418 92.548246 L 62.518493 97.104142 L 65.310300 104.458655 Z "
         id="path20"
         style="fill:none;stroke-width:0.03527778;stroke-miterlimit:4;stroke-dasharray:none" />
    </g>
    <g
       id="g32"
       style="fill:none;stroke-width:0.03527778;stroke-miterlimit:4;stroke-dasharray:none">
      <path
         class="sticker"
         d=" M 101.727624 90.247164 L 107.498986 90.090032 L 113.378202 99.661659 L 110.949014 105.259995 Z M 86.357799 28.915937 L 91.537748 26.366140 L 113.378202 40.982361 L 112.996426 46.743239 Z M 77.592139 61.561207 L 73.511799 57.476575 L 80.137742 32.800104 L 86.357799 28.915937 Z M 99.204590 75.812514 L 102.495146 83.804707 L 100.435649 92.748906 L 94.915395 94.440098 Z "
         id="path24"
         style="fill:none;stroke-width:0.03527778;stroke-miterlimit:4;stroke-dasharray:none" />
      <path
         class="convex"
         d=" M 110.949014 105.259995 L 101.727624 90.247164 M 112.996426 46.743239 L 86.357799 28.915937 M 94.915395 94.440098 L 99.204590 75.812514 M 79.545450 92.594440 L 99.204590 75.812514 M 86.357799 28.915937 L 77.592139 61.561207 M 86.341304 111.358057 L 94.915395 94.440098 M 77.592139 61.561207 L 112.996426 46.743239 M 99.591260 109.743590 L 94.915395 94.440098 "
         id="path26"
         style="fill:none;stroke-width:0.03527778;stroke-miterlimit:4;stroke-dasharray:none" />
      <path
         class="concave"
         d=" M 79.545450 92.594440 L 94.915395 94.440098 M 110.949014 105.259995 L 94.915395 94.440098 M 77.592139 61.561207 L 99.204590 75.812514 "
         id="path28"
         style="fill:none;stroke-width:0.03527778;stroke-miterlimit:4;stroke-dasharray:none" />
      <path
         class="outer"
         d="m 79.54545,92.59444 -1.953311,-31.033233 -4.08034,-4.084632 6.625943,-24.676471 6.220057,-3.884167 5.179949,-2.549797 21.840452,14.616221 -0.38177,5.760878 -13.79184,29.069275 3.29056,7.992193 -0.76753,6.442457 -6.812225,4.192934 6.812225,-4.192934 5.77137,-0.157132 5.87921,9.571627 -2.42919,5.598341 -11.35775,4.48359 -13.249956,1.61447 z"
         id="path30"
         style="fill:none;stroke:#ff0000;stroke-width:0.03527778;stroke-linecap:butt;stroke-linejoin:bevel;stroke-dasharray:none;stroke-dashoffset:0;stroke-opacity:1;stroke-miterlimit:4"
         inkscape:connector-curvature="0"
         sodipodi:nodetypes="ccccccccccccccccccc" />
    </g>
  </g>
</svg>
