<?xml version="1.0" encoding="UTF-8" standalone="no"?>
<svg
   xmlns:dc="http://purl.org/dc/elements/1.1/"
   xmlns:cc="http://creativecommons.org/ns#"
   xmlns:rdf="http://www.w3.org/1999/02/22-rdf-syntax-ns#"
   xmlns:svg="http://www.w3.org/2000/svg"
   xmlns="http://www.w3.org/2000/svg"
   xmlns:sodipodi="http://sodipodi.sourceforge.net/DTD/sodipodi-0.dtd"
   xmlns:inkscape="http://www.inkscape.org/namespaces/inkscape"
   version="1.1"
   width="210.00mm"
   height="297.00mm"
   viewBox="0 0 210.00 297.00"
   id="svg14"
   sodipodi:docname="duck_female_body3_page3.svg"
   inkscape:version="0.92.2 5c3e80d, 2017-08-06">
  <metadata
     id="metadata20">
    <rdf:RDF>
      <cc:Work
         rdf:about="">
        <dc:format>image/svg+xml</dc:format>
        <dc:type
           rdf:resource="http://purl.org/dc/dcmitype/StillImage" />
        <dc:title></dc:title>
      </cc:Work>
    </rdf:RDF>
  </metadata>
  <defs
     id="defs18" />
  <sodipodi:namedview
     pagecolor="#ffffff"
     bordercolor="#666666"
     borderopacity="1"
     objecttolerance="10"
     gridtolerance="10"
     guidetolerance="10"
     inkscape:pageopacity="0"
     inkscape:pageshadow="2"
     inkscape:window-width="1440"
     inkscape:window-height="805"
     id="namedview16"
     showgrid="false"
     inkscape:zoom="2.3786088"
     inkscape:cx="495.70952"
     inkscape:cy="494.9837"
     inkscape:window-x="0"
     inkscape:window-y="1"
     inkscape:window-maximized="1"
     inkscape:current-layer="svg14" />
  <style
     type="text/css"
     id="style2">
    path {
        fill: none;
        stroke-linecap: butt;
        stroke-linejoin: bevel;
        stroke-dasharray: none;
    }
    path.outer {
        stroke: #ff0000;
        stroke-dasharray: none;
        stroke-dashoffset: 0;
        stroke-width: 0.3;
        stroke-opacity: 1.0;
    }
    path.convex {
        stroke: #000000;
        stroke-dasharray: none;
        stroke-dashoffset:0;
        stroke-width:0.2;
        stroke-opacity: 1.0
    }
    path.concave {
        stroke: #000000;
        stroke-dasharray: none;
        stroke-dashoffset: 0;
        stroke-width: 0.2;
        stroke-opacity: 1.0
    }
    path.freestyle {
        stroke: #000000;
        stroke-dasharray: none;
        stroke-dashoffset: 0;
        stroke-width: 0.2;
        stroke-opacity: 1.0
    }
    path.outer_background {
        stroke: #ffffff;
        stroke-opacity: 1.0;
        stroke-width: 0.5
    }
    path.inner_background {
        stroke: #ffffff;
        stroke-opacity: 1.0;
        stroke-width: 0.2
    }
    path.sticker {
        fill: #e5e5e5;
        stroke: none;
        fill-opacity: 1.0;
    }
    path.arrow {
        fill: #000;
    }
    text {
        font-style: normal;
        fill: #000000;
        fill-opacity: 1.0;
        stroke: none;
    }
    text, tspan {
        text-anchor:middle;
    }
    </style>
  <g
     id="g12"
     style="fill:none;stroke-width:0.03527778;stroke-miterlimit:4;stroke-dasharray:none">
    <path
       class="sticker"
       d=" M 134.858449 259.351405 L 138.475646 263.851306 L 131.977324 280.599604 L 123.962720 287.433196 Z M 73.063363 142.738502 L 72.744985 147.253375 L 53.886914 152.077521 Z M 60.230848 210.859994 L 55.000422 213.304567 L 40.660356 203.282314 L 41.158498 197.530339 Z M 93.005543 283.235698 L 87.345970 282.094421 L 80.206868 260.879737 L 84.025030 256.549037 Z M 119.095442 131.404812 L 124.853981 131.820197 L 138.475661 159.904907 L 135.236670 164.684261 Z M 72.223482 116.102557 L 77.347700 119.963448 L 77.969898 139.695610 L 73.063363 142.738502 Z M 93.646985 123.695652 L 99.590969 125.680755 L 105.637182 143.641229 L 101.819505 147.972341 Z M 73.199605 169.952239 L 69.450137 164.436678 L 73.732634 147.705088 L 79.292280 146.148275 Z M 123.962720 287.433196 L 120.430348 291.999991 L 95.194315 288.578227 L 93.005543 283.235698 Z M 77.055414 221.607777 L 71.930957 224.267329 L 59.971859 216.627683 L 60.230848 210.859994 Z M 41.158498 197.530339 L 36.944670 201.477113 L 8.418637 192.824165 L 7.107552 187.201495 Z M 113.615599 194.611202 L 134.787564 165.305833 L 136.357923 165.527205 Z M 88.556488 174.509945 L 73.557493 171.446430 L 73.199605 169.952239 Z M 13.042462 153.924922 L 7.650512 150.742839 L 5.000000 127.317662 L 9.546467 123.027380 Z "
       id="path4"
       style="fill:none;stroke-width:0.03527778;stroke-miterlimit:4;stroke-dasharray:none" />
    <path
       class="convex"
       d=" M 84.025030 256.549037 L 113.615599 194.611202 M 113.615599 194.611202 L 77.055414 221.607777 M 28.120476 115.007679 L 13.042462 153.924922 M 7.107552 187.201495 L 41.158498 197.530339 M 101.819505 147.972341 L 79.292280 146.148275 M 88.556488 174.509945 L 79.292280 146.148275 M 72.861512 171.304475 L 60.230848 210.859994 M 77.055414 221.607777 L 88.556488 174.509945 M 41.158498 197.530339 L 53.886914 152.077521 M 79.292280 146.148275 L 73.199605 169.952239 M 135.236670 164.684261 L 119.095442 131.404812 M 73.199605 169.952239 L 88.556488 174.509945 M 60.230848 210.859994 L 77.055414 221.607777 M 28.120476 115.007679 L 53.886914 152.077521 M 113.615599 194.611202 L 118.191150 231.902386 M 101.819505 147.972341 L 88.556488 174.509945 M 118.191150 231.902386 L 123.962720 287.433196 M 41.158498 197.530339 L 60.230848 210.859994 M 93.005543 283.235698 L 123.962720 287.433196 M 7.107552 187.201495 L 53.886914 152.077521 M 53.886914 152.077521 L 73.063363 142.738502 M 136.357923 165.527205 L 113.615599 194.611202 M 84.025030 256.549037 L 118.191150 231.902386 M 72.861512 171.304475 L 53.886914 152.077521 M 73.063363 142.738502 L 72.223482 116.102557 M 9.546467 123.027380 L 13.042462 153.924922 M 72.223482 116.102557 L 53.886914 152.077521 M 84.025030 256.549037 L 93.005543 283.235698 M 93.005543 283.235698 L 118.191150 231.902386 M 113.615599 194.611202 L 88.556488 174.509945 M 13.042462 153.924922 L 53.886914 152.077521 "
       id="path6"
       style="fill:none;stroke-width:0.03527778;stroke-miterlimit:4;stroke-dasharray:none" />
    <path
       class="concave"
       d=" M 123.962720 287.433196 L 134.858449 259.351405 M 101.819505 147.972341 L 135.236670 164.684261 M 88.556488 174.509945 L 60.230848 210.859994 M 101.819505 147.972341 L 93.646985 123.695652 M 113.615599 194.611202 L 101.819505 147.972341 "
       id="path8"
       style="fill:none;stroke-width:0.03527778;stroke-miterlimit:4;stroke-dasharray:none" />
    <path
       class="outer"
       d="m 138.47565,263.85131 -6.49833,16.74829 -8.0146,6.8336 -3.53237,4.56679 -25.236035,-3.42176 -2.188772,-5.34253 -5.659573,-1.14128 -7.139102,-21.21468 3.818162,-4.3307 -6.969616,-34.94126 -5.124457,2.65955 -11.959098,-7.63965 0.258989,-5.76769 -5.230426,2.44458 -14.340066,-10.02226 0.498142,-5.75197 -4.213828,3.94677 -28.526033,-8.65295 -1.311085,-5.62267 5.93491,-33.27657 -5.39195,-3.18208 L 5,127.31766 l 4.546467,-4.29028 18.574009,-8.0197 44.103006,1.09488 5.124218,3.86089 0.622198,19.73216 -4.906535,3.04289 -0.318378,4.51487 -18.858071,4.82415 20.664211,-5.28617 -1.689613,24.51312 15.694976,3.20547 -15.694976,-3.20547 0.338093,-1.35223 v 0 l 1.35152,-23.16089 4.741155,-0.64308 14.354705,-22.45262 5.943984,1.98511 6.046211,17.96047 -3.81768,4.33111 17.27594,-16.56753 5.75854,0.41539 13.62168,28.08471 -3.23899,4.77935 -21.62107,29.92694 21.17196,-29.30537 1.57036,0.22137 -18.16677,66.37519 16.6673,27.44901 z"
       id="path10"
       style="fill:none;stroke:#ff0000;stroke-width:0.03527778;stroke-linecap:butt;stroke-linejoin:bevel;stroke-dasharray:none;stroke-dashoffset:0;stroke-opacity:1;stroke-miterlimit:4"
       inkscape:connector-curvature="0"
       sodipodi:nodetypes="cccccccccccccccccccccccccccccccccccccccccccccccccccc" />
  </g>
</svg>
