<?xml version="1.0" encoding="UTF-8" standalone="no"?>
<svg
   xmlns:dc="http://purl.org/dc/elements/1.1/"
   xmlns:cc="http://creativecommons.org/ns#"
   xmlns:rdf="http://www.w3.org/1999/02/22-rdf-syntax-ns#"
   xmlns:svg="http://www.w3.org/2000/svg"
   xmlns="http://www.w3.org/2000/svg"
   xmlns:sodipodi="http://sodipodi.sourceforge.net/DTD/sodipodi-0.dtd"
   xmlns:inkscape="http://www.inkscape.org/namespaces/inkscape"
   version="1.1"
   width="210.00mm"
   height="297.00mm"
   viewBox="0 0 210.00 297.00"
   id="svg14"
   sodipodi:docname="duck_female_body3_page1.svg"
   inkscape:version="0.92.2 5c3e80d, 2017-08-06">
  <metadata
     id="metadata20">
    <rdf:RDF>
      <cc:Work
         rdf:about="">
        <dc:format>image/svg+xml</dc:format>
        <dc:type
           rdf:resource="http://purl.org/dc/dcmitype/StillImage" />
        <dc:title></dc:title>
      </cc:Work>
    </rdf:RDF>
  </metadata>
  <defs
     id="defs18" />
  <sodipodi:namedview
     pagecolor="#ffffff"
     bordercolor="#666666"
     borderopacity="1"
     objecttolerance="10"
     gridtolerance="10"
     guidetolerance="10"
     inkscape:pageopacity="0"
     inkscape:pageshadow="2"
     inkscape:window-width="1440"
     inkscape:window-height="805"
     id="namedview16"
     showgrid="false"
     inkscape:zoom="1.6819304"
     inkscape:cx="144.73509"
     inkscape:cy="502.15439"
     inkscape:window-x="0"
     inkscape:window-y="1"
     inkscape:window-maximized="1"
     inkscape:current-layer="svg14" />
  <style
     type="text/css"
     id="style2">
    path {
        fill: none;
        stroke-linecap: butt;
        stroke-linejoin: bevel;
        stroke-dasharray: none;
    }
    path.outer {
        stroke: #ff0000;
        stroke-dasharray: none;
        stroke-dashoffset: 0;
        stroke-width: 0.3;
        stroke-opacity: 1.0;
    }
    path.convex {
        stroke: #000000;
        stroke-dasharray: none;
        stroke-dashoffset:0;
        stroke-width:0.2;
        stroke-opacity: 1.0
    }
    path.concave {
        stroke: #000000;
        stroke-dasharray: none;
        stroke-dashoffset: 0;
        stroke-width: 0.2;
        stroke-opacity: 1.0
    }
    path.freestyle {
        stroke: #000000;
        stroke-dasharray: none;
        stroke-dashoffset: 0;
        stroke-width: 0.2;
        stroke-opacity: 1.0
    }
    path.outer_background {
        stroke: #ffffff;
        stroke-opacity: 1.0;
        stroke-width: 0.5
    }
    path.inner_background {
        stroke: #ffffff;
        stroke-opacity: 1.0;
        stroke-width: 0.2
    }
    path.sticker {
        fill: #e5e5e5;
        stroke: none;
        fill-opacity: 1.0;
    }
    path.arrow {
        fill: #000;
    }
    text {
        font-style: normal;
        fill: #000000;
        fill-opacity: 1.0;
        stroke: none;
    }
    text, tspan {
        text-anchor:middle;
    }
    </style>
  <g
     id="g12"
     style="fill:none;stroke-width:0.03527778;stroke-miterlimit:4;stroke-dasharray:none">
    <path
       class="sticker"
       d=" M 164.939721 109.260242 L 170.012702 112.016718 L 170.626094 135.725985 L 165.771862 141.424636 Z M 99.589554 102.374296 L 94.413889 99.108840 L 93.695481 85.225399 L 98.539625 82.084130 Z M 71.251315 164.101194 L 70.353855 130.478258 L 71.560417 120.679940 L 76.875736 118.425916 Z M 122.262415 139.853220 L 126.650286 136.100898 L 135.781770 139.328132 L 136.837442 145.004298 Z M 38.457413 222.972098 L 34.357741 218.671906 L 37.346785 206.385720 L 44.723340 197.216558 Z M 28.108151 217.869508 L 22.450761 216.717425 L 7.542576 172.134611 L 9.676821 162.750761 Z M 70.134443 211.506302 L 69.121790 217.190298 L 42.873570 226.691085 L 38.457413 222.972098 Z M 17.649897 59.695194 L 28.237629 62.572713 L 54.836881 86.789246 L 53.605431 92.429887 Z M 25.532375 150.921906 L 24.441649 147.631015 L 46.432045 127.433951 Z M 53.605431 92.429887 L 60.007450 93.159492 L 72.679688 112.971271 L 70.023102 118.097271 Z M 142.174919 86.467545 L 141.235818 89.891027 L 119.449203 95.212768 Z M 154.041682 86.359884 L 158.117359 84.187846 L 160.986190 85.976700 L 160.829385 90.592365 Z M 147.408341 59.695209 L 153.794472 64.654614 L 157.879774 81.076662 L 154.041682 86.359884 Z M 165.771862 141.424636 L 163.116221 146.551128 L 140.468289 147.585417 L 137.356450 142.722319 Z M 103.470524 188.775244 L 101.880361 227.041955 L 97.531189 252.010851 L 91.778879 255.897707 Z M 76.875736 118.425916 L 76.347609 112.676616 L 94.174159 100.078787 L 99.589554 102.374296 Z M 23.467197 148.870985 L 23.152425 154.635902 L 10.657044 160.968225 L 5.821866 157.813172 Z M 122.276989 139.320116 L 121.963565 139.842416 L 96.707230 138.888354 Z M 143.104021 89.434664 L 139.571120 78.938226 L 142.046397 61.835985 L 147.408341 59.695209 Z M 98.539625 82.084130 L 101.911684 77.397699 L 139.802386 81.204037 L 142.174919 86.467545 Z M 67.999956 264.779107 L 63.265142 258.060592 L 65.022887 214.190560 L 70.134443 211.506302 Z M 101.145749 257.410067 L 101.174106 256.379667 L 140.890975 221.179451 Z "
       id="path4"
       style="fill:none;stroke-width:0.03527778;stroke-miterlimit:4;stroke-dasharray:none" />
    <path
       class="convex"
       d=" M 46.432045 127.433951 L 71.251315 164.101194 M 9.676821 162.750761 L 28.108151 217.869508 M 99.589554 102.374296 L 76.875736 118.425916 M 47.898029 150.556426 L 71.251315 164.101194 M 44.723340 197.216558 L 9.676821 162.750761 M 96.707230 138.888354 L 99.589554 102.374296 M 119.449203 95.212768 L 99.589554 102.374296 M 46.432045 127.433951 L 47.898029 150.556426 M 76.875736 118.425916 L 71.251315 164.101194 M 136.837442 145.004298 L 122.262415 139.853220 M 44.723340 197.216558 L 47.898029 150.556426 M 122.262415 139.853220 L 103.470524 188.775244 M 165.771862 141.424636 L 164.939721 109.260242 M 96.707230 138.888354 L 76.875736 118.425916 M 103.470524 188.775244 L 136.837442 145.004298 M 143.104021 89.434664 L 122.276989 139.320116 M 165.771862 141.424636 L 143.104021 89.434664 M 143.104021 89.434664 L 137.356450 142.722319 M 119.449203 95.212768 L 98.539625 82.084130 M 137.356450 142.722319 L 165.771862 141.424636 M 98.539625 82.084130 L 99.589554 102.374296 M 119.449203 95.212768 L 142.174919 86.467545 M 191.789781 168.879437 L 140.890975 221.179451 M 101.145749 257.410067 L 142.663826 291.999991 M 44.723340 197.216558 L 25.532375 150.921906 M 46.432045 127.433951 L 25.532375 150.921906 M 70.134443 211.506302 L 71.251315 164.101194 M 53.605431 92.429887 L 17.649897 59.695194 M 70.134443 211.506302 L 67.999956 264.779107 M 44.723340 197.216558 L 38.457413 222.972098 M 147.408341 59.695209 L 143.104021 89.434664 M 70.134443 211.506302 L 103.470524 188.775244 M 140.890975 221.179451 L 164.310087 152.378033 M 44.723340 197.216558 L 71.251315 164.101194 M 44.723340 197.216558 L 70.134443 211.506302 M 103.470524 188.775244 L 71.251315 164.101194 M 46.432045 127.433951 L 53.605431 92.429887 M 46.432045 127.433951 L 70.023102 118.097271 M 46.432045 127.433951 L 17.649897 59.695194 M 91.778879 255.897707 L 70.134443 211.506302 M 122.276989 139.320116 L 99.589554 102.374296 M 154.221942 270.745066 L 140.890975 221.179451 M 91.778879 255.897707 L 103.470524 188.775244 M 140.890975 221.179451 L 101.145749 257.410067 M 70.023102 118.097271 L 53.605431 92.429887 M 96.707230 138.888354 L 122.276989 139.320116 M 119.449203 95.212768 L 122.276989 139.320116 M 140.890975 221.179451 L 136.837442 145.004298 M 5.821866 157.813172 L 23.467197 148.870985 M 103.470524 188.775244 L 96.707230 138.888354 M 23.467197 148.870985 L 5.000000 89.802573 M 154.041682 86.359884 L 143.104021 89.434664 M 96.707230 138.888354 L 71.251315 164.101194 "
       id="path6"
       style="fill:none;stroke-width:0.03527778;stroke-miterlimit:4;stroke-dasharray:none" />
    <path
       class="concave"
       d=" M 101.145749 257.410067 L 118.900378 288.255498 M 164.939721 109.260242 L 143.104021 89.434664 M 38.457413 222.972098 L 70.134443 211.506302 M 140.890975 221.179451 L 103.470524 188.775244 M 25.532375 150.921906 L 47.898029 150.556426 M 46.432045 127.433951 L 5.000000 89.802573 M 142.174919 86.467545 L 98.539625 82.084130 M 154.221942 270.745066 L 101.145749 257.410067 M 83.767225 274.003581 L 70.134443 211.506302 M 154.041682 86.359884 L 147.408341 59.695209 M 160.829385 90.592365 L 143.104021 89.434664 M 186.778148 222.134720 L 140.890975 221.179451 M 160.829385 90.592365 L 154.041682 86.359884 "
       id="path8"
       style="fill:none;stroke-width:0.03527778;stroke-miterlimit:4;stroke-dasharray:none" />
    <path
       class="outer"
       d="m 25.532375,150.92191 -1.090726,-3.2909 21.990396,-20.19706 -22.964848,21.43703 2.065178,2.05093 L 9.676821,162.75076 5.821866,157.81317 5,89.802573 17.649897,59.695194 l 10.587732,2.877519 26.599252,24.216533 -1.23145,5.640641 6.402019,0.729605 12.672238,19.811778 -2.656586,5.126 1.228213,46.00392 -0.89746,-33.62293 1.206562,-9.79832 5.315319,-2.25402 -0.528127,-5.7493 17.82655,-12.59783 5.415395,2.29551 -5.175665,-3.26546 -0.718408,-13.883441 4.844144,-3.141269 3.372055,-4.686431 37.89071,3.806338 2.37253,5.263508 -0.9391,3.423482 -21.78662,5.321741 23.65482,-5.778104 -3.5329,-10.496438 2.47528,-17.102241 5.36194,-2.140776 6.38613,4.959405 4.0853,16.422048 -3.83809,5.283222 4.07568,-2.172038 2.86883,1.788854 -0.15681,4.615665 4.11034,18.667875 5.07298,2.75648 0.61339,23.70926 -4.85423,5.69866 -2.65564,5.12649 -26.27878,-1.54683 0.51901,-2.28198 -15.07946,-3.4022 -0.31343,0.5223 -25.25633,-0.95407 25.55518,0.96487 0.0146,-0.5331 15.07946,3.4022 -0.51901,2.28198 27.47265,7.37373 27.47969,16.50141 -5.01163,53.25528 -32.55621,48.61035 -11.55811,21.25492 -23.76345,-3.74449 -21.854946,-11.34052 4.100316,-19.50491 0.0284,-1.0304 39.71686,-35.20022 -40.24896,35.6702 2.82851,-68.07441 -1.59016,38.26671 -4.349171,24.9689 -5.75231,3.88686 -8.011654,18.10587 -15.767269,-9.22447 -4.734814,-6.71852 1.915054,-41.82501 4.954247,-4.72928 -4.954247,4.72928 -22.306626,10.4555 -4.416157,-3.71898 -4.099672,-4.30019 2.989044,-12.28619 7.376555,-9.16916 -16.615189,20.65295 -5.65739,-1.15209 -14.908185,-44.58281 2.134245,-9.38385 z"
       id="path10"
       style="fill:none;stroke:#ff0000;stroke-width:0.03527778;stroke-linecap:butt;stroke-linejoin:bevel;stroke-miterlimit:4;stroke-dasharray:none;stroke-dashoffset:0;stroke-opacity:1"
       inkscape:connector-curvature="0"
       sodipodi:nodetypes="ccccccccccccccccccccccccccccccccccccccccccccccccccccccccccccccccccccccccccccccccccccc" />
  </g>
</svg>
