<?xml version="1.0" encoding="UTF-8" standalone="no"?>
<svg
   xmlns:dc="http://purl.org/dc/elements/1.1/"
   xmlns:cc="http://creativecommons.org/ns#"
   xmlns:rdf="http://www.w3.org/1999/02/22-rdf-syntax-ns#"
   xmlns:svg="http://www.w3.org/2000/svg"
   xmlns="http://www.w3.org/2000/svg"
   xmlns:sodipodi="http://sodipodi.sourceforge.net/DTD/sodipodi-0.dtd"
   xmlns:inkscape="http://www.inkscape.org/namespaces/inkscape"
   version="1.1"
   width="210.00mm"
   height="297.00mm"
   viewBox="0 0 210.00 297.00"
   id="svg14"
   sodipodi:docname="duck_female_body3_page5.svg"
   inkscape:version="0.92.2 5c3e80d, 2017-08-06">
  <metadata
     id="metadata20">
    <rdf:RDF>
      <cc:Work
         rdf:about="">
        <dc:format>image/svg+xml</dc:format>
        <dc:type
           rdf:resource="http://purl.org/dc/dcmitype/StillImage" />
        <dc:title></dc:title>
      </cc:Work>
    </rdf:RDF>
  </metadata>
  <defs
     id="defs18" />
  <sodipodi:namedview
     pagecolor="#ffffff"
     bordercolor="#666666"
     borderopacity="1"
     objecttolerance="10"
     gridtolerance="10"
     guidetolerance="10"
     inkscape:pageopacity="0"
     inkscape:pageshadow="2"
     inkscape:window-width="1440"
     inkscape:window-height="805"
     id="namedview16"
     showgrid="false"
     inkscape:snap-global="true"
     inkscape:zoom="4.7572176"
     inkscape:cx="74.336094"
     inkscape:cy="493.99363"
     inkscape:window-x="0"
     inkscape:window-y="1"
     inkscape:window-maximized="1"
     inkscape:current-layer="svg14" />
  <style
     type="text/css"
     id="style2">
    path {
        fill: none;
        stroke-linecap: butt;
        stroke-linejoin: bevel;
        stroke-dasharray: none;
    }
    path.outer {
        stroke: #ff0000;
        stroke-dasharray: none;
        stroke-dashoffset: 0;
        stroke-width: 0.3;
        stroke-opacity: 1.0;
    }
    path.convex {
        stroke: #000000;
        stroke-dasharray: none;
        stroke-dashoffset:0;
        stroke-width:0.2;
        stroke-opacity: 1.0
    }
    path.concave {
        stroke: #000000;
        stroke-dasharray: none;
        stroke-dashoffset: 0;
        stroke-width: 0.2;
        stroke-opacity: 1.0
    }
    path.freestyle {
        stroke: #000000;
        stroke-dasharray: none;
        stroke-dashoffset: 0;
        stroke-width: 0.2;
        stroke-opacity: 1.0
    }
    path.outer_background {
        stroke: #ffffff;
        stroke-opacity: 1.0;
        stroke-width: 0.5
    }
    path.inner_background {
        stroke: #ffffff;
        stroke-opacity: 1.0;
        stroke-width: 0.2
    }
    path.sticker {
        fill: #e5e5e5;
        stroke: none;
        fill-opacity: 1.0;
    }
    path.arrow {
        fill: #000;
    }
    text {
        font-style: normal;
        fill: #000000;
        fill-opacity: 1.0;
        stroke: none;
    }
    text, tspan {
        text-anchor:middle;
    }
    </style>
  <g
     id="g12"
     style="fill:none;stroke-width:0.03527778;stroke-miterlimit:4;stroke-dasharray:none">
    <path
       class="sticker"
       d=" M 5.000000 180.888976 L 9.879006 177.802126 L 22.504465 184.424820 L 23.640652 190.666939 Z M 59.081757 206.896703 L 59.535359 210.806998 L 48.803863 214.534442 Z M 78.380887 171.139981 L 82.927396 165.704946 L 88.077811 165.235589 L 91.406417 169.952954 Z M 55.401024 192.635710 L 61.472625 185.487102 L 61.841858 185.371096 L 66.094582 189.275923 Z M 20.107779 148.805450 L 23.724043 144.304777 L 35.332589 146.098073 L 41.235191 152.069251 Z M 46.496057 178.477022 L 47.932652 164.964209 L 52.878288 164.490397 Z M 52.878288 164.490397 L 59.804683 167.173925 L 65.842693 179.277214 L 62.657208 184.092398 Z M 20.871255 165.327857 L 19.724571 159.669380 L 23.076954 156.708057 L 28.550687 158.544238 Z M 14.294230 171.742226 L 12.985668 166.602056 L 15.765445 163.891013 L 20.871255 165.327857 Z M 49.997293 279.629312 L 43.784247 277.038005 L 38.093139 260.872149 L 40.952311 253.936618 Z M 56.675271 260.505910 L 60.160288 265.692190 L 55.669461 278.552359 L 49.997293 279.629312 Z M 83.795157 291.982383 L 78.021680 291.999991 L 74.343924 285.674564 L 77.101340 280.469595 Z M 82.429756 210.345562 L 80.497545 215.786139 L 73.797134 217.021632 L 70.051563 212.627995 Z M 61.341417 237.499944 L 61.085430 239.267851 L 48.814812 245.396565 Z M 91.406417 169.952954 L 96.995224 171.401578 L 99.158903 179.220098 L 95.109959 183.335851 Z M 82.551745 200.110237 L 87.516983 203.056368 L 87.463808 207.518595 L 82.429756 210.345562 Z M 81.846368 254.209328 L 79.798599 240.510753 L 80.450763 237.607162 L 85.961838 235.886316 Z M 41.546025 231.017685 L 35.626107 229.932345 L 32.798073 223.407808 L 36.237619 218.770701 Z M 60.900011 210.332933 L 66.668098 210.582989 L 69.299062 215.633216 L 66.618347 221.309493 Z M 94.457013 241.596664 L 99.158910 246.875792 L 98.401320 259.923770 L 93.242404 262.515844 Z M 76.478598 229.132804 L 76.370967 234.905309 L 67.642276 239.730122 L 61.341417 237.499944 Z M 77.101340 280.469595 L 74.027021 285.356501 L 64.774935 285.005314 L 62.079915 279.899418 Z M 52.765221 226.926397 L 44.964791 232.800818 L 41.546025 231.017685 Z M 36.237619 218.770701 L 30.766428 216.926950 L 29.603682 211.148198 L 33.828971 206.799905 Z M 23.640652 190.666939 L 17.428056 189.379047 L 11.089458 176.544602 L 14.294230 171.742226 Z M 62.079915 279.899418 L 56.488493 278.460898 L 52.864810 265.458002 L 56.675271 260.505910 Z M 40.952311 253.936618 L 36.313732 250.499043 L 37.723177 238.207689 L 43.225800 234.110209 Z "
       id="path4"
       style="fill:none;stroke-width:0.03527778;stroke-miterlimit:4;stroke-dasharray:none" />
    <path
       class="convex"
       d=" M 23.640652 190.666939 L 5.000000 180.888976 M 56.675271 260.505910 L 81.846368 254.209328 M 43.225800 234.110209 L 40.952311 253.936618 M 52.765221 226.926397 L 66.618347 221.309493 M 20.871255 165.327857 L 46.496057 178.477022 M 52.765221 226.926397 L 61.341417 237.499944 M 95.109959 183.335851 L 91.406417 169.952954 M 62.657208 184.092398 L 46.496057 178.477022 M 91.406417 169.952954 L 78.380887 171.139981 M 61.341417 237.499944 L 76.478598 229.132804 M 46.496057 178.477022 L 55.401024 192.635710 M 66.618347 221.309493 L 60.900011 210.332933 M 48.121353 163.189228 L 28.550687 158.544238 M 28.550687 158.544238 L 46.496057 178.477022 M 41.235191 152.069251 L 20.107779 148.805450 M 49.997293 279.629312 L 56.675271 260.505910 M 20.871255 165.327857 L 23.640652 190.666939 M 62.062298 238.780136 L 81.846368 254.209328 M 77.101340 280.469595 L 81.846368 254.209328 M 23.640652 190.666939 L 46.496057 178.477022 M 70.051563 212.627995 L 66.094582 189.275923 M 62.657208 184.092398 L 52.878288 164.490397 M 94.457013 241.596664 L 81.846368 254.209328 M 52.878288 164.490397 L 46.496057 178.477022 M 48.803863 214.534442 L 36.237619 218.770701 M 93.242404 262.515844 L 94.457013 241.596664 M 41.546025 231.017685 L 52.765221 226.926397 M 93.242404 262.515844 L 81.846368 254.209328 M 85.961838 235.886316 L 81.846368 254.209328 M 52.765221 226.926397 L 48.803863 214.534442 M 59.081757 206.896703 L 55.401024 192.635710 M 48.803863 214.534442 L 41.546025 231.017685 M 82.429756 210.345562 L 82.551745 200.110237 M 77.101340 280.469595 L 93.242404 262.515844 M 82.551745 200.110237 L 70.051563 212.627995 M 48.803863 214.534442 L 59.081757 206.896703 M 70.051563 212.627995 L 82.429756 210.345562 M 59.081757 206.896703 L 66.094582 189.275923 M 66.094582 189.275923 L 55.401024 192.635710 M 82.551745 200.110237 L 66.094582 189.275923 M 82.551745 200.110237 L 78.380887 171.139981 M 61.341417 237.499944 L 43.225800 234.110209 M 56.675271 260.505910 L 48.814812 245.396565 M 43.225800 234.110209 L 48.814812 245.396565 M 95.109959 183.335851 L 78.380887 171.139981 M 48.814812 245.396565 L 40.952311 253.936618 M 48.814812 245.396565 L 61.341417 237.499944 M 77.101340 280.469595 L 56.675271 260.505910 M 48.803863 214.534442 L 33.828971 206.799905 M 23.640652 190.666939 L 33.828971 206.799905 M 33.828971 206.799905 L 36.237619 218.770701 M 56.675271 260.505910 L 62.062298 238.780136 M 33.828971 206.799905 L 46.496057 178.477022 M 33.828971 206.799905 L 55.401024 192.635710 M 36.237619 218.770701 L 41.546025 231.017685 "
       id="path6"
       style="fill:none;stroke-width:0.03527778;stroke-miterlimit:4;stroke-dasharray:none" />
    <path
       class="concave"
       d=" M 23.640652 190.666939 L 16.229942 205.966759 M 61.341417 237.499944 L 66.618347 221.309493 M 28.550687 158.544238 L 20.871255 165.327857 M 48.803863 214.534442 L 66.618347 221.309493 M 56.675271 260.505910 L 40.952311 253.936618 M 40.952311 253.936618 L 49.997293 279.629312 M 77.101340 280.469595 L 83.795157 291.982383 M 59.081757 206.896703 L 33.828971 206.799905 M 14.294230 171.742226 L 23.640652 190.666939 M 77.101340 280.469595 L 97.634722 275.688707 M 20.871255 165.327857 L 14.294230 171.742226 M 41.235191 152.069251 L 28.550687 158.544238 M 62.079915 279.899418 L 77.101340 280.469595 M 56.675271 260.505910 L 62.079915 279.899418 "
       id="path8"
       style="fill:none;stroke-width:0.03527778;stroke-miterlimit:4;stroke-dasharray:none" />
    <path
       class="outer"
       d="m 82.927396,165.70495 5.150415,-0.46936 3.328606,4.71736 5.588807,1.44863 2.163679,7.81852 -4.048944,4.11575 -12.558214,16.77439 4.965238,2.94613 -0.05317,4.46222 -5.034052,2.82697 -1.932211,5.44058 -6.700411,1.23549 -3.745571,-4.39364 -10.969806,-5.73129 0.453602,3.9103 -10.731496,3.72744 12.096148,-4.20151 5.10068,0.41691 3.298371,4.88338 -2.680715,5.67627 9.860251,7.82331 -0.107631,5.77251 -14.308669,3.87483 -0.720881,-1.2802 -0.255987,1.76791 -12.270618,6.12871 13.247486,-6.61642 17.007597,-3.14394 2.776473,18.57313 -2.047769,-13.69858 0.652164,-2.90359 5.511075,-1.72084 8.495175,5.71034 4.701897,5.27913 -0.75759,13.04798 -5.158916,2.59207 4.392318,13.17287 -13.839565,16.29367 -5.773477,0.0176 -3.994659,-6.64349 3.074319,-4.8869 -3.074319,4.8869 -9.252086,-0.35119 -2.69502,-5.10589 -5.591422,-1.43852 -0.05456,-12.37939 0.241338,-5.5756 -0.241338,5.5756 -0.764472,12.47085 -5.672168,1.07695 -6.213046,-2.59131 -5.691108,-16.16585 2.859172,-6.93553 -4.638579,-3.43758 1.409445,-12.29135 5.502623,-4.09748 9.539421,-7.18381 -7.80043,5.87442 -3.418766,-1.78314 -5.919918,-1.08534 -2.828034,-6.52453 3.439546,-4.63711 -5.471191,-1.84375 -1.162746,-5.77875 4.225289,-4.3483 L 16.229942,205.96676 5,180.88898 l 4.879006,-3.08685 8.327691,7.57248 5.433955,5.29233 -5.433955,-5.29233 -7.117239,-8.83001 3.204772,-4.80237 -1.308562,-5.14017 2.779777,-2.71105 5.10581,1.43685 -1.146684,-5.65848 3.352383,-2.96132 5.473733,1.83618 -8.442908,-9.73879 3.616264,-4.50067 11.608546,1.79329 5.902602,5.97118 6.886162,11.11998 -1.625296,15.28779 1.436595,-13.51281 4.945636,-0.47381 6.926395,2.68352 6.03801,12.10329 -3.185485,4.81519 -7.256184,8.54331 6.071601,-7.14861 0.369233,-0.116 4.252724,3.90482 12.286305,-18.13594 z"
       id="path10"
       style="fill:none;stroke:#ff0000;stroke-width:0.03527778;stroke-linecap:butt;stroke-linejoin:bevel;stroke-dasharray:none;stroke-dashoffset:0;stroke-opacity:1;stroke-miterlimit:4"
       inkscape:connector-curvature="0"
       sodipodi:nodetypes="cccccccccccccccccccccccccccccccccccccccccccccccccccccccccccccccccccccccccccccccccccccccccccccccc" />
  </g>
</svg>
