<?xml version="1.0" encoding="UTF-8" standalone="no"?>
<svg
   xmlns:dc="http://purl.org/dc/elements/1.1/"
   xmlns:cc="http://creativecommons.org/ns#"
   xmlns:rdf="http://www.w3.org/1999/02/22-rdf-syntax-ns#"
   xmlns:svg="http://www.w3.org/2000/svg"
   xmlns="http://www.w3.org/2000/svg"
   xmlns:sodipodi="http://sodipodi.sourceforge.net/DTD/sodipodi-0.dtd"
   xmlns:inkscape="http://www.inkscape.org/namespaces/inkscape"
   version="1.1"
   width="210.00mm"
   height="297.00mm"
   viewBox="0 0 210.00 297.00"
   id="svg26"
   sodipodi:docname="duck_female_body3_page4.svg"
   inkscape:version="0.92.2 5c3e80d, 2017-08-06">
  <metadata
     id="metadata32">
    <rdf:RDF>
      <cc:Work
         rdf:about="">
        <dc:format>image/svg+xml</dc:format>
        <dc:type
           rdf:resource="http://purl.org/dc/dcmitype/StillImage" />
        <dc:title></dc:title>
      </cc:Work>
    </rdf:RDF>
  </metadata>
  <defs
     id="defs30" />
  <sodipodi:namedview
     pagecolor="#ffffff"
     bordercolor="#666666"
     borderopacity="1"
     objecttolerance="10"
     gridtolerance="10"
     guidetolerance="10"
     inkscape:pageopacity="0"
     inkscape:pageshadow="2"
     inkscape:window-width="1440"
     inkscape:window-height="805"
     id="namedview28"
     showgrid="false"
     inkscape:snap-global="true"
     inkscape:zoom="0.2973261"
     inkscape:cx="698.69125"
     inkscape:cy="550.70885"
     inkscape:window-x="0"
     inkscape:window-y="1"
     inkscape:window-maximized="1"
     inkscape:current-layer="svg26" />
  <style
     type="text/css"
     id="style2">
    path {
        fill: none;
        stroke-linecap: butt;
        stroke-linejoin: bevel;
        stroke-dasharray: none;
    }
    path.outer {
        stroke: #ff0000;
        stroke-dasharray: none;
        stroke-dashoffset: 0;
        stroke-width: 0.3;
        stroke-opacity: 1.0;
    }
    path.convex {
        stroke: #000000;
        stroke-dasharray: none;
        stroke-dashoffset:0;
        stroke-width:0.2;
        stroke-opacity: 1.0
    }
    path.concave {
        stroke: #000000;
        stroke-dasharray: none;
        stroke-dashoffset: 0;
        stroke-width: 0.2;
        stroke-opacity: 1.0
    }
    path.freestyle {
        stroke: #000000;
        stroke-dasharray: none;
        stroke-dashoffset: 0;
        stroke-width: 0.2;
        stroke-opacity: 1.0
    }
    path.outer_background {
        stroke: #ffffff;
        stroke-opacity: 1.0;
        stroke-width: 0.5
    }
    path.inner_background {
        stroke: #ffffff;
        stroke-opacity: 1.0;
        stroke-width: 0.2
    }
    path.sticker {
        fill: #e5e5e5;
        stroke: none;
        fill-opacity: 1.0;
    }
    path.arrow {
        fill: #000;
    }
    text {
        font-style: normal;
        fill: #000000;
        fill-opacity: 1.0;
        stroke: none;
    }
    text, tspan {
        text-anchor:middle;
    }
    </style>
  <g
     id="g24"
     style="fill:none;stroke-width:0.03527778;stroke-miterlimit:4;stroke-dasharray:none">
    <g
       id="g12"
       style="fill:none;stroke-width:0.03527778;stroke-miterlimit:4;stroke-dasharray:none">
      <path
         class="sticker"
         d=" M 74.169313 263.886969 L 66.259117 262.020438 L 56.481865 249.841089 L 58.573783 244.459900 Z M 102.675115 287.014830 L 98.959421 291.999991 L 86.483632 291.950027 L 83.616932 286.938506 Z M 83.616932 286.938506 L 77.895676 286.163555 L 71.972718 271.711933 L 74.169313 263.886969 Z M 20.041157 206.053468 L 18.739943 213.024075 L 10.214855 218.902330 L 5.000000 216.424699 Z M 7.467900 199.328627 L 7.104989 191.356177 L 32.102679 157.184686 L 37.842558 157.806898 Z M 67.715083 227.736945 L 73.323359 229.108269 L 76.340933 239.454518 L 72.829832 245.273693 Z "
         id="path4"
         style="fill:none;stroke-width:0.03527778;stroke-miterlimit:4;stroke-dasharray:none" />
      <path
         class="convex"
         d=" M 37.033641 231.943700 L 68.780457 162.144209 M 68.780457 162.144209 L 116.470640 129.721354 M 74.169313 263.886969 L 83.616932 286.938506 M 83.616932 286.938506 L 89.771618 274.080454 M 68.780457 162.144209 L 92.381408 182.612727 M 20.041157 206.053468 L 7.467900 199.328627 M 67.715083 227.736945 L 92.381408 182.612727 M 83.616932 286.938506 L 102.675115 287.014830 M 58.573783 244.459900 L 74.169313 263.886969 M 20.041157 206.053468 L 37.842558 157.806898 M 58.573783 244.459900 L 72.829832 245.273693 M 67.715083 227.736945 L 58.573783 244.459900 "
         id="path6"
         style="fill:none;stroke-width:0.03527778;stroke-miterlimit:4;stroke-dasharray:none" />
      <path
         class="concave"
         d=" M 74.169313 263.886969 L 89.771618 274.080454 M 37.033641 231.943700 L 92.381408 182.612727 M 37.033641 231.943700 L 37.842558 157.806898 M 5.000000 216.424699 L 20.041157 206.053468 M 74.169313 263.886969 L 72.829832 245.273693 M 37.842558 157.806898 L 7.467900 199.328627 M 72.829832 245.273693 L 67.715083 227.736945 "
         id="path8"
         style="fill:none;stroke-width:0.03527778;stroke-miterlimit:4;stroke-dasharray:none" />
      <path
         class="outer"
         d="m 89.771618,274.08045 12.903492,12.93438 -3.715689,4.98516 -12.475789,-0.05 -2.8667,-5.01152 -5.721256,-0.77496 -5.922958,-14.45162 2.196595,-7.82496 -7.910196,-1.86653 -9.777252,-12.17935 2.091918,-5.38119 -21.540142,-12.5162 -23.589643,-8.01014 6.597159,-17.88009 -2.413559,6.74814 -7.412743,6.10072 L 5,216.4247 l 2.4679,-17.09607 -0.362911,-7.97245 24.99769,-34.17149 5.739879,0.62221 30.937899,4.33731 13.884395,-26.73067 33.805788,-5.69219 -24.089232,52.89138 24.089232,23.5501 -48.755557,21.57411 5.608276,1.37133 3.017574,10.34625 -3.511101,5.81917 z"
         id="path10"
         style="fill:none;stroke:#ff0000;stroke-width:0.03527778;stroke-linecap:butt;stroke-linejoin:bevel;stroke-dasharray:none;stroke-dashoffset:0;stroke-opacity:1;stroke-miterlimit:4"
         inkscape:connector-curvature="0"
         sodipodi:nodetypes="ccccccccccccccccccccccccccccccc" />
    </g>
    <g
       id="g22"
       style="fill:none;stroke-width:0.03527778;stroke-miterlimit:4;stroke-dasharray:none">
      <path
         class="sticker"
         d=" M 162.052219 119.865607 L 167.715167 118.741165 L 176.897709 129.219006 L 178.280358 138.382907 Z M 142.534648 123.905177 L 146.998052 117.875407 L 158.211996 115.554447 L 162.052219 119.865607 Z M 180.529852 239.976226 L 186.064129 241.620938 L 196.389382 284.798843 L 192.970459 291.999991 Z M 122.825530 259.784273 L 117.695403 257.135670 L 116.470640 231.101266 L 121.151228 224.194060 Z M 152.277146 215.058881 L 127.829117 222.234140 L 123.278563 222.635414 L 119.963770 217.908311 Z M 182.020281 156.237270 L 171.863784 151.393349 L 163.689365 140.975873 L 161.389847 129.945825 Z M 178.280358 138.382907 L 184.033190 137.894745 L 191.345816 148.396517 L 192.027171 158.124934 Z M 192.027171 158.124934 L 196.389382 161.907042 L 192.897906 179.993863 L 187.441383 181.880589 Z M 176.884924 172.729517 L 172.969242 168.486792 L 175.869782 159.171666 L 182.020281 156.237270 Z M 187.441383 181.880589 L 191.890468 186.807754 L 185.872857 237.389321 L 180.529852 239.976226 Z M 161.389847 129.945825 L 153.352325 132.621179 L 143.758272 129.547517 L 142.534648 123.905177 Z "
         id="path14"
         style="fill:none;stroke-width:0.03527778;stroke-miterlimit:4;stroke-dasharray:none" />
      <path
         class="convex"
         d=" M 119.963770 217.908311 L 152.277146 215.058881 M 152.277146 215.058881 L 138.875877 271.657246 M 121.151228 224.194060 L 122.825530 259.784273 M 152.277146 215.058881 L 122.825530 259.784273 M 187.441383 181.880589 L 192.027171 158.124934 M 192.970459 291.999991 L 180.529852 239.976226 M 182.020281 156.237270 L 178.280358 138.382907 M 180.529852 239.976226 L 158.143704 284.702732 M 178.280358 138.382907 L 161.389847 129.945825 M 178.280358 138.382907 L 162.052219 119.865607 M 162.052219 119.865607 L 161.389847 129.945825 M 162.052219 119.865607 L 142.534648 123.905177 M 180.529852 239.976226 L 138.875877 271.657246 M 192.027171 158.124934 L 182.020281 156.237270 M 180.529852 239.976226 L 187.441383 181.880589 M 176.884924 172.729517 L 192.027171 158.124934 M 187.441383 181.880589 L 152.277146 215.058881 M 152.277146 215.058881 L 180.529852 239.976226 M 192.027171 158.124934 L 178.280358 138.382907 M 176.884924 172.729517 L 152.277146 215.058881 "
         id="path16"
         style="fill:none;stroke-width:0.03527778;stroke-miterlimit:4;stroke-dasharray:none" />
      <path
         class="concave"
         d=" M 152.277146 215.058881 L 128.867579 191.195945 M 161.389847 129.945825 L 182.020281 156.237270 M 142.534648 123.905177 L 161.389847 129.945825 M 182.020281 156.237270 L 176.884924 172.729517 M 187.441383 181.880589 L 176.884924 172.729517 "
         id="path18"
         style="fill:none;stroke-width:0.03527778;stroke-miterlimit:4;stroke-dasharray:none" />
      <path
         class="outer"
         d=" M 122.825530 259.784273 L 117.695403 257.135670 L 116.470640 231.101266 L 121.151228 224.194060 L 152.277146 215.058881 L 127.829117 222.234140 L 123.278563 222.635414 L 119.963770 217.908311 L 128.867579 191.195945 L 176.884924 172.729517 L 172.969242 168.486792 L 175.869782 159.171666 L 182.020281 156.237270 L 171.863784 151.393349 L 163.689365 140.975873 L 161.389847 129.945825 L 153.352325 132.621179 L 143.758272 129.547517 L 142.534648 123.905177 L 146.998052 117.875407 L 158.211996 115.554447 L 162.052219 119.865607 L 167.715167 118.741165 L 176.897709 129.219006 L 178.280358 138.382907 L 184.033190 137.894745 L 191.345816 148.396517 L 192.027171 158.124934 L 196.389382 161.907042 L 192.897906 179.993863 L 187.441383 181.880589 L 191.890468 186.807754 L 185.872857 237.389321 L 180.529852 239.976226 L 186.064129 241.620938 L 196.389382 284.798843 L 192.970459 291.999991 L 158.143704 284.702732 L 138.875877 271.657246 Z "
         id="path20"
         style="fill:none;stroke-width:0.03527778;stroke-miterlimit:4;stroke-dasharray:none" />
    </g>
  </g>
</svg>
